<svg width="135" height="52" viewBox="0 0 135 52" fill="none" xmlns="http://www.w3.org/2000/svg">
<path d="M57.7621 17.589V6.90349V6.56694C57.4747 6.76326 57.7464 6.56694 61.1323 4.21108C56.994 1.7206 54.6531 5.24878 54 7.32418V18.5145C54.3135 20.3992 55.2279 21.3191 55.6459 21.5435C56.2102 21.7454 56.0378 22.3849 55.8027 22.8897C55.3847 23.0019 54.627 23.4618 54.9405 24.4042C56.3513 24.9931 57.7621 24.1518 59.4864 23.2262C61.9161 23.4787 67.8728 18.178 70.7727 16.1587C67.0106 13.6345 63.7188 16.3269 61.1323 18.178C59.0632 19.6588 58.0234 18.4023 57.7621 17.589Z" fill="#C1519C"/>
<path d="M66.771 0.75708L57.3545 6.33068C58.9738 7.67445 62.1361 7.34869 63.5148 7.01783C64.1309 6.73788 65.9614 5.82676 68.3551 4.42191C70.7489 3.01706 71.8166 4.49826 72.0513 5.41447V14.9583C71.2886 15.4164 69.4816 16.5006 68.3551 17.1725C73.565 19.3714 75.8649 16.0018 76.3636 14.0421V4.95637C76.2756 4.19286 76.0116 3.58205 75.2195 2.20774C72.685 -0.907363 68.5311 -0.0573265 66.771 0.75708Z" fill="#1093ED"/>
<path d="M2.46 34.2999C2.71333 34.2999 2.94 34.3666 3.14 34.4999C3.35333 34.6333 3.48 34.8666 3.52 35.1999C3.68 36.2533 3.78 37.3066 3.82 38.3599C3.87333 39.3999 3.9 40.5799 3.9 41.8999C3.9 42.4599 3.85333 43.4799 3.76 44.9599C4.34667 45.0133 4.8 45.0399 5.12 45.0399C5.34667 45.0399 5.86 45.0066 6.66 44.9399C7.12667 44.8733 7.53333 44.8399 7.88 44.8399C8.2 44.8399 8.49333 44.8733 8.76 44.9399C9.02667 44.9933 9.3 45.0866 9.58 45.2199C9.86 45.3799 10 45.6266 10 45.9599C10 46.2266 9.91333 46.4666 9.74 46.6799C9.58 46.8933 9.38667 46.9999 9.16 46.9999C9 46.9999 8.74667 46.9733 8.4 46.9199C7.77333 46.8266 7.17333 46.7799 6.6 46.7799C6.41333 46.7799 6.2 46.7933 5.96 46.8199C5.73333 46.8333 5.56667 46.8399 5.46 46.8399C5.14 46.8799 4.82 46.8999 4.5 46.8999C3.84667 46.8999 3.26 46.8666 2.74 46.7999C2.47333 46.7733 2.20667 46.6733 1.94 46.4999C1.67333 46.3133 1.54 46.0466 1.54 45.6999C1.54 45.4999 1.56667 44.9866 1.62 44.1599C1.71333 42.7866 1.76 41.7399 1.76 41.0199C1.76 40.4599 1.73333 39.8733 1.68 39.2599C1.62667 38.6466 1.59333 38.2599 1.58 38.0999C1.46 36.9666 1.4 36.0333 1.4 35.2999C1.4 34.9533 1.48 34.6999 1.64 34.5399C1.81333 34.3799 2.08667 34.2999 2.46 34.2999ZM10.9977 42.7599C10.9977 42.2533 11.091 41.7466 11.2777 41.2399C11.4643 40.7199 11.711 40.2466 12.0177 39.8199C12.3243 39.3933 12.811 39.0466 13.4777 38.7799C14.1443 38.4999 14.7377 38.3599 15.2577 38.3599C15.791 38.3599 16.331 38.4333 16.8777 38.5799C17.4377 38.7266 17.8243 38.9533 18.0377 39.2599C18.531 39.9533 18.7777 40.6333 18.7777 41.2999C18.7777 41.6599 18.6977 41.9666 18.5377 42.2199C18.391 42.4733 18.1777 42.7466 17.8977 43.0399C17.671 43.2799 17.311 43.4399 16.8177 43.5199C16.3377 43.5999 15.8577 43.6399 15.3777 43.6399C15.071 43.6399 14.6977 43.6133 14.2577 43.5599C13.8177 43.4933 13.391 43.4133 12.9777 43.3199C13.0043 43.5866 13.071 43.8466 13.1777 44.0999C13.2843 44.3533 13.411 44.5466 13.5577 44.6799C13.8243 44.9333 14.0977 45.0933 14.3777 45.1599C14.671 45.2266 15.0443 45.2599 15.4977 45.2599C15.9777 45.2599 16.4243 45.1799 16.8377 45.0199C17.171 44.8999 17.4443 44.8399 17.6577 44.8399C17.911 44.8399 18.1043 44.9199 18.2377 45.0799C18.371 45.2266 18.4377 45.4199 18.4377 45.6599C18.4377 45.9933 18.2443 46.2666 17.8577 46.4799C17.471 46.6933 17.0243 46.8533 16.5177 46.9599C16.0243 47.0533 15.6243 47.0999 15.3177 47.0999C14.691 47.0999 14.0843 46.9866 13.4977 46.7599C12.911 46.5333 12.4243 46.2133 12.0377 45.7999C11.7177 45.4266 11.4643 44.9799 11.2777 44.4599C11.091 43.9266 10.9977 43.3599 10.9977 42.7599ZM15.3577 40.0599C15.0643 40.0599 14.771 40.1199 14.4777 40.2399C14.1843 40.3466 13.9443 40.4999 13.7577 40.6999C13.5177 40.9533 13.351 41.1599 13.2577 41.3199C13.1777 41.4666 13.1243 41.6733 13.0977 41.9399C13.431 42.0466 14.1243 42.0999 15.1777 42.0999C15.751 42.0999 16.191 42.0133 16.4977 41.8399C16.8177 41.6666 16.9777 41.4399 16.9777 41.1599C16.9777 40.8799 16.8043 40.6266 16.4577 40.3999C16.111 40.1733 15.7443 40.0599 15.3577 40.0599ZM20.6889 40.0799C20.5022 40.0533 20.3489 39.9733 20.2289 39.8399C20.1222 39.7066 20.0689 39.5466 20.0689 39.3599C20.0689 39.2666 20.0889 39.1666 20.1289 39.0599C20.1822 38.9533 20.2556 38.8599 20.3489 38.7799C20.5222 38.6066 20.9889 38.5199 21.7489 38.5199C21.8556 37.9999 21.9089 37.4733 21.9089 36.9399C21.9089 36.7399 21.9022 36.5666 21.8889 36.4199C21.8756 36.2733 21.8689 36.1599 21.8689 36.0799C21.8689 35.7866 21.9756 35.5666 22.1889 35.4199C22.4156 35.2733 22.6689 35.1999 22.9489 35.1999C23.2956 35.1999 23.5289 35.2866 23.6489 35.4599C23.7822 35.6333 23.8489 35.9533 23.8489 36.4199C23.8489 37.1133 23.7889 37.7933 23.6689 38.4599C23.8822 38.4599 24.1756 38.4466 24.5489 38.4199C25.0556 38.3933 25.4222 38.3799 25.6489 38.3799C25.8756 38.3799 26.0689 38.4399 26.2289 38.5599C26.4022 38.6666 26.4889 38.8199 26.4889 39.0199C26.4889 39.5399 26.2556 39.8466 25.7889 39.9399C25.2956 40.0599 24.5289 40.1333 23.4889 40.1599C23.4489 40.6799 23.4289 41.2466 23.4289 41.8599C23.4289 42.8199 23.4889 43.6066 23.6089 44.2199C23.6889 44.6466 23.8222 44.9599 24.0089 45.1599C24.2089 45.3466 24.5022 45.4399 24.8889 45.4399C25.1156 45.4399 25.3489 45.3799 25.5889 45.2599C25.7489 45.1666 25.8956 45.1199 26.0289 45.1199C26.2156 45.1199 26.3489 45.1799 26.4289 45.2999C26.5222 45.4199 26.5689 45.5799 26.5689 45.7799C26.5689 46.1533 26.3689 46.4666 25.9689 46.7199C25.5689 46.9599 25.0556 47.0799 24.4289 47.0799C24.0422 47.0799 23.6489 46.9866 23.2489 46.7999C22.8622 46.6133 22.5356 46.3799 22.2689 46.0999C22.2289 46.0599 22.1556 45.9066 22.0489 45.6399C21.9422 45.3733 21.8489 45.0866 21.7689 44.7799C21.6356 44.1533 21.5689 43.2733 21.5689 42.1399C21.5689 41.6466 21.5956 40.9866 21.6489 40.1599L20.6889 40.0799ZM28.8084 36.2599C28.6618 36.2599 28.5551 36.2333 28.4884 36.1799C28.3151 36.0733 28.1684 35.9466 28.0484 35.7999C27.9418 35.6533 27.8884 35.4399 27.8884 35.1599C27.9018 34.9599 27.9484 34.7866 28.0284 34.6399C28.1084 34.4799 28.2218 34.3666 28.3684 34.2999C28.6484 34.1533 29.0084 34.0799 29.4484 34.0799C29.7684 34.0799 30.0151 34.1999 30.1884 34.4399C30.3751 34.6666 30.4684 34.9466 30.4684 35.2799C30.4684 35.6799 30.3484 36.1466 30.1084 36.6799C29.8818 37.1999 29.6551 37.6066 29.4284 37.8999C29.2551 38.0999 29.0618 38.2733 28.8484 38.4199C28.6351 38.5666 28.4484 38.6399 28.2884 38.6399C27.9684 38.6399 27.7684 38.5933 27.6884 38.4999C27.6218 38.3933 27.5884 38.2133 27.5884 37.9599C27.5884 37.8533 27.7284 37.6866 28.0084 37.4599C28.2351 37.2599 28.3751 37.1199 28.4284 37.0399C28.6284 36.7733 28.7751 36.5133 28.8684 36.2599H28.8084ZM37.6756 42.6799C37.7823 42.7466 37.989 42.8733 38.2956 43.0599C38.6156 43.2333 38.829 43.4399 38.9356 43.6799C39.0423 43.9199 39.0956 44.2533 39.0956 44.6799C39.0956 45.1599 38.9556 45.5866 38.6756 45.9599C38.3956 46.3199 38.0356 46.5999 37.5956 46.7999C37.289 46.9333 36.9556 47.0133 36.5956 47.0399C36.249 47.0666 35.829 47.0799 35.3356 47.0799C35.069 47.0799 34.7223 47.0399 34.2956 46.9599C33.8823 46.8799 33.5956 46.8066 33.4356 46.7399C33.009 46.4999 32.649 46.2199 32.3556 45.8999C32.0623 45.5799 31.9156 45.2533 31.9156 44.9199C31.9156 44.6533 32.0023 44.4399 32.1756 44.2799C32.349 44.1199 32.5756 44.0399 32.8556 44.0399C33.0023 44.0399 33.1423 44.0799 33.2756 44.1599C33.4223 44.2266 33.5223 44.3066 33.5756 44.3999C33.7223 44.7466 33.969 45.0066 34.3156 45.1799C34.6623 45.3533 35.0156 45.4399 35.3756 45.4399C36.6423 45.4399 37.2756 45.2133 37.2756 44.7599C37.2756 44.6399 37.2423 44.5466 37.1756 44.4799C37.1223 44.3999 37.0423 44.3199 36.9356 44.2399C36.7623 44.1199 36.5156 43.9933 36.1956 43.8599C35.889 43.7266 35.6156 43.6266 35.3756 43.5599C34.829 43.4399 34.2956 43.2599 33.7756 43.0199C33.2956 42.7799 32.9023 42.4666 32.5956 42.0799C32.289 41.6799 32.1356 41.1933 32.1356 40.6199C32.1356 40.2733 32.2623 39.9333 32.5156 39.5999C32.7823 39.2533 33.089 38.9933 33.4356 38.8199C33.6756 38.7266 34.069 38.6266 34.6156 38.5199C35.1623 38.4133 35.5356 38.3599 35.7356 38.3599C36.0423 38.3599 36.3756 38.3933 36.7356 38.4599C37.0956 38.5133 37.369 38.6066 37.5556 38.7399C37.9156 38.9533 38.209 39.1799 38.4356 39.4199C38.6623 39.6466 38.7756 39.9066 38.7756 40.1999C38.7756 40.3466 38.7423 40.5066 38.6756 40.6799C38.609 40.8399 38.529 40.9399 38.4356 40.9799C38.2356 41.0733 38.0023 41.1199 37.7356 41.1199C37.6156 41.1199 37.5156 41.0866 37.4356 41.0199C37.369 40.9533 37.2756 40.8466 37.1556 40.6999C37.009 40.4733 36.869 40.3399 36.7356 40.2999C36.5756 40.2599 36.3423 40.2133 36.0356 40.1599C35.729 40.0933 35.5223 40.0599 35.4156 40.0599C35.0823 40.0599 34.7623 40.1266 34.4556 40.2599C34.1623 40.3933 34.0156 40.5733 34.0156 40.7999C34.0156 41.0666 34.2356 41.2933 34.6756 41.4799C34.9556 41.6133 35.2623 41.7266 35.5956 41.8199C35.9423 41.9133 36.1556 41.9733 36.2356 41.9999C36.4223 42.0399 36.6623 42.1333 36.9556 42.2799C37.2623 42.4266 37.5023 42.5599 37.6756 42.6799ZM56.2541 42.9599C56.2541 43.7066 55.9674 44.4199 55.3941 45.0999C54.8341 45.7666 54.1207 46.2933 53.2541 46.6799C52.8807 46.7999 52.4074 46.8999 51.8341 46.9799C51.2607 47.0466 50.6807 47.0866 50.0941 47.0999C48.9474 47.0999 47.8807 46.9399 46.8941 46.6199C46.7207 46.5799 46.5207 46.4666 46.2941 46.2799C46.0674 46.0933 45.9607 45.8466 45.9741 45.5399V44.8599C45.9741 44.1133 45.9541 43.3933 45.9141 42.6999C45.8874 41.7933 45.8741 41.0999 45.8741 40.6199L45.8541 38.3599C45.8541 37.5599 45.8807 36.7533 45.9341 35.9399C45.9474 35.5266 46.1007 35.1799 46.3941 34.8999C46.7007 34.6066 47.0807 34.4266 47.5341 34.3599C47.7074 34.3466 48.0207 34.3399 48.4741 34.3399L50.3941 34.3599C51.3141 34.3599 52.1341 34.4799 52.8541 34.7199C53.5741 34.9599 54.1941 35.3466 54.7141 35.8799C54.8874 36.0799 55.0274 36.3466 55.1341 36.6799C55.2407 36.9999 55.2941 37.3133 55.2941 37.6199C55.2541 38.6999 54.6341 39.5799 53.4341 40.2599C54.3941 40.3799 55.1007 40.6799 55.5541 41.1599C56.0207 41.6399 56.2541 42.2399 56.2541 42.9599ZM48.6941 39.7799C48.8274 39.7666 49.0407 39.7599 49.3341 39.7599H50.2341C50.6341 39.7599 50.9141 39.7466 51.0741 39.7199C52.4341 39.4133 53.1141 38.8733 53.1141 38.0999C53.1141 37.8999 53.0807 37.6866 53.0141 37.4599C52.9607 37.2333 52.8874 37.0733 52.7941 36.9799C52.4474 36.6466 52.1207 36.4333 51.8141 36.3399C51.5074 36.2333 51.0541 36.1799 50.4541 36.1799C49.2941 36.1799 48.4607 36.2399 47.9541 36.3599L47.9741 39.7999L48.6941 39.7799ZM49.6141 45.4199C51.0007 45.4199 52.0874 45.2466 52.8741 44.8999C53.6741 44.5533 54.0741 43.8733 54.0741 42.8599C54.0741 42.4599 53.7807 42.1333 53.1941 41.8799C52.6074 41.6133 51.9674 41.4799 51.2741 41.4799C50.4207 41.4799 49.8207 41.4999 49.4741 41.5399C49.1807 41.5666 48.9807 41.5799 48.8741 41.5799C48.6741 41.5799 48.5341 41.5733 48.4541 41.5599C48.3874 41.5599 48.3074 41.5599 48.2141 41.5599C48.1341 41.5466 48.0474 41.5466 47.9541 41.5599L47.9741 42.2199C47.9874 42.3799 48.0074 42.8199 48.0341 43.5399C48.0741 44.2466 48.0807 44.7466 48.0541 45.0399C48.3607 45.1733 48.6274 45.2733 48.8541 45.3399C49.0807 45.3933 49.3341 45.4199 49.6141 45.4199ZM57.9108 42.4199C57.9108 41.6066 58.0908 40.9333 58.4508 40.3999C58.8108 39.8533 59.3108 39.3399 59.9508 38.8599C60.1374 38.7266 60.4508 38.6133 60.8908 38.5199C61.3308 38.4133 61.7174 38.3599 62.0508 38.3599C62.4508 38.3599 62.8708 38.4466 63.3108 38.6199C63.7641 38.7799 64.1308 38.9666 64.4108 39.1799C64.9041 39.5399 65.2441 39.9599 65.4308 40.4399C65.6174 40.9066 65.7108 41.4666 65.7108 42.1199C65.7108 42.3999 65.5508 42.6733 65.2308 42.9399C64.9241 43.1933 64.5908 43.3199 64.2308 43.3199L63.4708 43.2999C63.0841 43.2999 62.5308 43.3133 61.8108 43.3399L61.3908 43.3599C61.0974 43.3866 60.8774 43.3999 60.7308 43.3999C60.5174 43.3999 60.2241 43.3733 59.8508 43.3199C59.9041 43.9466 60.1374 44.4399 60.5508 44.7999C60.9641 45.1466 61.4108 45.3199 61.8908 45.3199C62.7308 45.3199 63.3174 45.1533 63.6508 44.8199C63.9308 44.6199 64.1174 44.4933 64.2108 44.4399C64.3041 44.3866 64.4508 44.3599 64.6508 44.3599C64.8641 44.3599 65.0508 44.4599 65.2108 44.6599C65.3708 44.8599 65.4508 45.0599 65.4508 45.2599C65.4508 45.4866 65.3108 45.7199 65.0308 45.9599C64.7641 46.1866 64.3974 46.4266 63.9308 46.6799C63.6774 46.7866 63.3308 46.8799 62.8908 46.9599C62.4508 47.0399 62.0841 47.0799 61.7908 47.0799C61.3241 47.0799 60.8041 46.9466 60.2308 46.6799C59.6574 46.3999 59.2308 46.0933 58.9508 45.7599C58.6708 45.4266 58.4241 44.9533 58.2108 44.3399C58.0108 43.7266 57.9108 43.0866 57.9108 42.4199ZM61.8908 41.8799C62.8374 41.8799 63.5308 41.8466 63.9708 41.7799C63.9441 41.3933 63.8241 41.0799 63.6108 40.8399C63.3974 40.5866 63.1041 40.3733 62.7308 40.1999C62.6108 40.1466 62.5041 40.1066 62.4108 40.0799C62.3174 40.0533 62.2108 40.0399 62.0908 40.0399C61.4774 40.0399 60.9574 40.2066 60.5308 40.5399C60.1174 40.8733 59.8708 41.2999 59.7908 41.8199C60.4574 41.8599 61.1574 41.8799 61.8908 41.8799ZM74.7352 46.2799C74.6952 46.4799 74.5752 46.6533 74.3752 46.7999C74.1885 46.9333 73.9218 46.9999 73.5752 46.9999C73.2818 46.9999 73.0485 46.9199 72.8752 46.7599C72.7152 46.5999 72.6285 46.4333 72.6152 46.2599C72.6952 45.6999 72.7352 44.8599 72.7352 43.7399C72.7352 43.0733 72.6952 42.0466 72.6152 40.6599C72.5218 39.3533 72.4752 38.1933 72.4752 37.1799C72.4752 36.6333 72.5018 36.0733 72.5552 35.4999C72.5552 35.3133 72.6618 35.1133 72.8752 34.8999C73.1018 34.6866 73.4085 34.5533 73.7952 34.4999C74.5818 34.4199 75.6285 34.3799 76.9352 34.3799L79.0952 34.3999C79.5618 34.3999 80.0018 34.4933 80.4152 34.6799C80.8418 34.8533 81.0552 35.1533 81.0552 35.5799C81.0552 36.1799 80.7418 36.4799 80.1152 36.4799C79.9285 36.4799 79.7352 36.4666 79.5352 36.4399C79.3352 36.4133 79.1952 36.3933 79.1152 36.3799C78.6618 36.2999 78.2885 36.2599 77.9952 36.2599H77.0152C75.8285 36.2599 74.9885 36.3266 74.4952 36.4599C74.4952 36.8999 74.5085 37.6133 74.5352 38.5999L74.5552 39.8799C75.2618 39.8799 76.2085 39.8333 77.3952 39.7399C78.1152 39.6866 78.5885 39.6599 78.8152 39.6599C79.1352 39.6599 79.4018 39.7266 79.6152 39.8599C79.8285 39.9933 79.9352 40.2066 79.9352 40.4999C79.9352 41.1799 79.4685 41.5199 78.5352 41.5199C78.0685 41.5199 77.7152 41.5266 77.4752 41.5399L76.2952 41.5599C75.6818 41.5599 75.1618 41.5799 74.7352 41.6199C74.7352 42.1133 74.7552 42.6333 74.7952 43.1799C74.7952 43.3533 74.8018 43.6199 74.8152 43.9799C74.8418 44.3399 74.8552 44.6666 74.8552 44.9599C74.8552 45.2133 74.8485 45.4466 74.8352 45.6599C74.8218 45.8733 74.7885 46.0799 74.7352 46.2799ZM85.0314 46.1999C85.0047 46.4266 84.9114 46.6266 84.7514 46.7999C84.5914 46.9733 84.3847 47.0599 84.1314 47.0599C83.7314 47.0599 83.4381 46.9866 83.2514 46.8399C83.0647 46.6799 82.9714 46.3933 82.9714 45.9799C82.9714 45.4199 83.0047 44.8066 83.0714 44.1399C83.1247 43.3666 83.1514 42.7733 83.1514 42.3599C83.1514 42.1466 83.1381 41.8799 83.1114 41.5599C83.0847 41.2666 83.0714 41.0466 83.0714 40.8999C83.0314 40.6733 82.9381 40.4933 82.7914 40.3599C82.6581 40.2266 82.4447 40.1133 82.1514 40.0199C82.0314 39.9666 81.9314 39.8799 81.8514 39.7599C81.7714 39.6266 81.7314 39.5066 81.7314 39.3999C81.7314 39.0933 81.8514 38.8599 82.0914 38.6999C82.3314 38.5399 82.6247 38.4599 82.9714 38.4599C83.3581 38.4599 83.6914 38.5933 83.9714 38.8599C84.2514 39.1266 84.4647 39.4599 84.6114 39.8599C84.9181 39.4199 85.2914 39.0666 85.7314 38.7999C86.1847 38.5333 86.6247 38.3999 87.0514 38.3999C87.5981 38.3999 88.0581 38.4933 88.4314 38.6799C88.8181 38.8533 89.0114 39.1599 89.0114 39.5999C89.0114 39.8533 88.8981 40.1199 88.6714 40.3999C88.4581 40.6666 88.2381 40.7999 88.0114 40.7999C87.8381 40.7999 87.6314 40.7199 87.3914 40.5599C87.2981 40.4933 87.1914 40.4399 87.0714 40.3999C86.9647 40.3466 86.8514 40.3199 86.7314 40.3199C86.5181 40.3199 86.3181 40.3533 86.1314 40.4199C85.9447 40.4866 85.8181 40.5666 85.7514 40.6599C85.5381 40.9933 85.3781 41.2933 85.2714 41.5599C85.1781 41.8266 85.1314 42.1133 85.1314 42.4199C85.1314 42.6466 85.1247 42.8266 85.1114 42.9599L85.0914 44.0999L85.1114 44.8599C85.1114 45.4199 85.0847 45.8666 85.0314 46.1999ZM91.1806 34.1599C91.6473 34.1999 92.0473 34.3266 92.3806 34.5399C92.7273 34.7399 92.9006 35.0466 92.9006 35.4599C92.9006 35.7666 92.7606 36.0133 92.4806 36.1999C92.2006 36.3733 91.854 36.4599 91.4406 36.4599C91.054 36.4599 90.7873 36.3599 90.6406 36.1599C90.494 35.9599 90.4206 35.7533 90.4206 35.5399C90.4206 35.1533 90.4673 34.8266 90.5606 34.5599C90.654 34.2799 90.8606 34.1466 91.1806 34.1599ZM90.7806 42.4199V41.8399C90.7806 41.1733 90.7473 40.5666 90.6806 40.0199C90.6273 39.4599 90.594 39.1133 90.5806 38.9799C90.594 38.8333 90.694 38.6933 90.8806 38.5599C91.0673 38.4266 91.234 38.3599 91.3806 38.3599C91.634 38.3599 91.8873 38.4133 92.1406 38.5199C92.4073 38.6133 92.574 38.7333 92.6406 38.8799C92.7073 39.3733 92.7406 39.7533 92.7406 40.0199C92.7406 40.6066 92.7673 41.5666 92.8206 42.8999L92.8406 43.6799L92.8806 44.4399C92.894 44.6533 92.9073 44.9066 92.9206 45.1999C92.934 45.4933 92.9406 45.8266 92.9406 46.1999C92.9406 46.4533 92.814 46.6666 92.5606 46.8399C92.3206 47.0133 92.0673 47.0999 91.8006 47.0999C91.414 47.0999 91.1406 47.0133 90.9806 46.8399C90.834 46.6666 90.7606 46.3933 90.7606 46.0199L90.7806 42.4199ZM95.1188 42.7599C95.1188 42.2533 95.2121 41.7466 95.3988 41.2399C95.5854 40.7199 95.8321 40.2466 96.1388 39.8199C96.4454 39.3933 96.9321 39.0466 97.5988 38.7799C98.2654 38.4999 98.8588 38.3599 99.3788 38.3599C99.9121 38.3599 100.452 38.4333 100.999 38.5799C101.559 38.7266 101.945 38.9533 102.159 39.2599C102.652 39.9533 102.899 40.6333 102.899 41.2999C102.899 41.6599 102.819 41.9666 102.659 42.2199C102.512 42.4733 102.299 42.7466 102.019 43.0399C101.792 43.2799 101.432 43.4399 100.939 43.5199C100.459 43.5999 99.9788 43.6399 99.4987 43.6399C99.1921 43.6399 98.8188 43.6133 98.3788 43.5599C97.9388 43.4933 97.5121 43.4133 97.0988 43.3199C97.1254 43.5866 97.1921 43.8466 97.2988 44.0999C97.4054 44.3533 97.5321 44.5466 97.6788 44.6799C97.9454 44.9333 98.2188 45.0933 98.4988 45.1599C98.7921 45.2266 99.1654 45.2599 99.6188 45.2599C100.099 45.2599 100.545 45.1799 100.959 45.0199C101.292 44.8999 101.565 44.8399 101.779 44.8399C102.032 44.8399 102.225 44.9199 102.359 45.0799C102.492 45.2266 102.559 45.4199 102.559 45.6599C102.559 45.9933 102.365 46.2666 101.979 46.4799C101.592 46.6933 101.145 46.8533 100.639 46.9599C100.145 47.0533 99.7454 47.0999 99.4388 47.0999C98.8121 47.0999 98.2054 46.9866 97.6188 46.7599C97.0321 46.5333 96.5454 46.2133 96.1588 45.7999C95.8388 45.4266 95.5854 44.9799 95.3988 44.4599C95.2121 43.9266 95.1188 43.3599 95.1188 42.7599ZM99.4788 40.0599C99.1854 40.0599 98.8921 40.1199 98.5988 40.2399C98.3054 40.3466 98.0654 40.4999 97.8788 40.6999C97.6388 40.9533 97.4721 41.1599 97.3788 41.3199C97.2988 41.4666 97.2454 41.6733 97.2188 41.9399C97.5521 42.0466 98.2454 42.0999 99.2988 42.0999C99.8721 42.0999 100.312 42.0133 100.619 41.8399C100.939 41.6666 101.099 41.4399 101.099 41.1599C101.099 40.8799 100.925 40.6266 100.579 40.3999C100.232 40.1733 99.8654 40.0599 99.4788 40.0599ZM113.93 45.4599C113.997 45.4866 114.103 45.5199 114.25 45.5599C114.397 45.5999 114.503 45.6399 114.57 45.6799C114.637 45.7199 114.67 45.7799 114.67 45.8599C114.683 46.1799 114.563 46.4466 114.31 46.6599C114.07 46.8599 113.783 46.9599 113.45 46.9599C112.93 46.9599 112.523 46.8199 112.23 46.5399C111.937 46.2599 111.723 45.8333 111.59 45.2599C111.537 45.0333 111.51 44.7199 111.51 44.3199C111.51 44.0933 111.523 43.7266 111.55 43.2199C111.577 42.6866 111.59 42.2599 111.59 41.9399C111.59 41.4733 111.457 41.0666 111.19 40.7199C110.937 40.3599 110.577 40.1799 110.11 40.1799C109.83 40.1799 109.537 40.2666 109.23 40.4399C108.923 40.5999 108.71 40.7999 108.59 41.0399C108.39 41.4266 108.25 41.8466 108.17 42.2999C108.023 43.0999 107.95 43.9333 107.95 44.7999C107.95 45.2133 107.957 45.5333 107.97 45.7599C107.97 45.8133 107.97 45.9199 107.97 46.0799C107.983 46.2266 107.97 46.3666 107.93 46.4999C107.903 46.6199 107.85 46.7333 107.77 46.8399C107.703 46.9066 107.597 46.9599 107.45 46.9999C107.317 47.0533 107.19 47.0799 107.07 47.0799C106.883 47.0799 106.65 46.9999 106.37 46.8399C106.09 46.6799 105.93 46.4999 105.89 46.2999L105.87 45.9599C105.87 45.8399 105.883 45.6999 105.91 45.5399C106.07 44.6066 106.15 43.7933 106.15 43.0999C106.15 42.7933 106.143 42.5533 106.13 42.3799L106.11 41.4399C106.11 41.1199 106.03 40.8133 105.87 40.5199C105.71 40.2133 105.523 40.0599 105.31 40.0599C105.243 40.0599 105.15 40.0866 105.03 40.1399C104.91 40.1799 104.81 40.1999 104.73 40.1999C104.597 40.1999 104.45 40.1333 104.29 39.9999C104.143 39.8666 104.07 39.7266 104.07 39.5799C104.07 39.2999 104.163 39.0733 104.35 38.8999C104.55 38.7399 104.743 38.6133 104.93 38.5199C105.13 38.4266 105.357 38.3799 105.61 38.3799C105.823 38.3799 105.997 38.3999 106.13 38.4399C106.263 38.4799 106.443 38.5666 106.67 38.6999C106.79 38.7666 106.93 38.9133 107.09 39.1399C107.25 39.3666 107.383 39.6866 107.49 40.0999C107.837 39.4599 108.263 39.0133 108.77 38.7599C109.29 38.4933 109.95 38.3599 110.75 38.3599C111.057 38.3599 111.383 38.4599 111.73 38.6599C112.09 38.8599 112.397 39.0933 112.65 39.3599C112.89 39.6533 113.09 40.0199 113.25 40.4599C113.41 40.8866 113.49 41.2733 113.49 41.6199C113.49 41.8199 113.477 42.1466 113.45 42.5999C113.41 42.9599 113.39 43.3399 113.39 43.7399C113.39 44.6733 113.57 45.2466 113.93 45.4599ZM124.399 46.8999C124.119 46.8999 123.852 46.8199 123.599 46.6599C123.359 46.4866 123.145 46.3066 122.959 46.1199C122.772 45.9199 122.645 45.7866 122.579 45.7199C122.299 46.1199 121.892 46.4466 121.359 46.6999C120.825 46.9533 120.312 47.0799 119.819 47.0799C119.059 47.0799 118.385 46.9199 117.799 46.5999C117.212 46.2799 116.759 45.8466 116.439 45.2999C116.119 44.7399 115.959 44.1199 115.959 43.4399C115.959 42.7999 116.032 42.1866 116.179 41.5999C116.339 40.9999 116.552 40.4999 116.819 40.0999C117.179 39.5933 117.659 39.1933 118.259 38.8999C118.872 38.6066 119.479 38.4599 120.079 38.4599C120.439 38.4599 120.779 38.5266 121.099 38.6599C121.419 38.7933 121.699 38.9599 121.939 39.1599C121.939 38.2799 121.932 37.7266 121.919 37.4999V37.0599C121.919 35.8066 121.999 34.8933 122.159 34.3199C122.305 33.7599 122.665 33.4799 123.239 33.4799C123.545 33.4799 123.772 33.5466 123.919 33.6799C124.065 33.8133 124.139 34.0666 124.139 34.4399C124.139 34.5733 124.105 34.9399 124.039 35.5399C123.892 37.0333 123.819 38.5266 123.819 40.0199C123.819 41.2733 123.839 42.2066 123.879 42.8199C123.932 43.4199 124.032 43.8999 124.179 44.2599C124.339 44.6199 124.585 44.9399 124.919 45.2199C125.119 45.3799 125.259 45.5133 125.339 45.6199C125.432 45.7266 125.479 45.8666 125.479 46.0399C125.479 46.2533 125.372 46.4533 125.159 46.6399C124.945 46.8133 124.692 46.8999 124.399 46.8999ZM119.759 45.4599C120.465 45.4599 120.985 45.2399 121.319 44.7999C121.665 44.3466 121.839 43.7733 121.839 43.0799L121.819 41.9599C121.805 41.7466 121.799 41.4599 121.799 41.0999C121.305 40.5133 120.772 40.2199 120.199 40.2199C119.812 40.2199 119.445 40.3199 119.099 40.5199C118.765 40.7199 118.492 41.0133 118.279 41.3999C118.052 41.8399 117.939 42.5066 117.939 43.3999C117.939 44.0133 118.119 44.5133 118.479 44.8999C118.839 45.2733 119.265 45.4599 119.759 45.4599ZM132.502 42.4199C133.035 42.7266 133.408 43.0333 133.622 43.3399C133.835 43.6333 133.942 44.0199 133.942 44.4999C133.942 44.9799 133.802 45.4066 133.522 45.7799C133.242 46.1399 132.882 46.4199 132.442 46.6199C132.122 46.7666 131.722 46.8799 131.242 46.9599C130.775 47.0399 130.408 47.0799 130.142 47.0799C129.675 47.0799 129.168 46.9933 128.622 46.8199C128.075 46.6466 127.608 46.3999 127.222 46.0799C126.848 45.7599 126.662 45.3866 126.662 44.9599C126.662 44.6933 126.748 44.4866 126.922 44.3399C127.095 44.1799 127.322 44.0999 127.602 44.0999C127.828 44.0999 128.068 44.2599 128.322 44.5799C128.575 44.8599 128.868 45.0733 129.202 45.2199C129.548 45.3666 129.888 45.4399 130.222 45.4399C131.488 45.4399 132.122 45.1533 132.122 44.5799C132.122 44.4599 132.082 44.3466 132.002 44.2399C131.922 44.1199 131.848 44.0399 131.782 43.9999C131.662 43.9066 131.495 43.8266 131.282 43.7599C131.068 43.6933 130.855 43.6399 130.642 43.5999C130.428 43.5466 130.268 43.5066 130.162 43.4799C130.055 43.4533 129.828 43.4066 129.482 43.3399C129.148 43.2733 128.828 43.1599 128.522 42.9999C128.015 42.7599 127.602 42.4666 127.282 42.1199C126.975 41.7733 126.822 41.3266 126.822 40.7799C126.822 40.4733 126.895 40.1666 127.042 39.8599C127.202 39.5399 127.415 39.2999 127.682 39.1399C128.082 38.8866 128.522 38.6933 129.002 38.5599C129.482 38.4266 129.928 38.3599 130.342 38.3599C130.675 38.3599 131.048 38.3933 131.462 38.4599C131.888 38.5266 132.195 38.6199 132.382 38.7399C132.728 38.9266 132.982 39.1199 133.142 39.3199C133.302 39.5199 133.382 39.7733 133.382 40.0799C133.382 40.2266 133.348 40.3733 133.282 40.5199C133.215 40.6533 133.135 40.7466 133.042 40.7999C132.828 40.8799 132.642 40.9199 132.482 40.9199C132.362 40.9199 132.262 40.8999 132.182 40.8599C132.102 40.8066 132.028 40.7533 131.962 40.6999C131.908 40.6466 131.875 40.6133 131.862 40.5999C131.688 40.4133 131.495 40.2666 131.282 40.1599C131.068 40.0533 130.755 39.9999 130.342 39.9999C130.075 39.9999 129.815 40.0399 129.562 40.1199C129.322 40.1866 129.135 40.2733 129.002 40.3799C128.895 40.4599 128.822 40.5333 128.782 40.5999C128.742 40.6533 128.722 40.7266 128.722 40.8199C128.722 41.1933 129.095 41.4666 129.842 41.6399C130.602 41.8133 131.002 41.9066 131.042 41.9199C131.122 41.9466 131.342 42.0133 131.702 42.1199C132.075 42.2266 132.342 42.3266 132.502 42.4199Z" fill="url(#paint0_linear_96_35)"/>
<defs>
<linearGradient id="paint0_linear_96_35" x1="101.875" y1="27.9999" x2="39.9499" y2="50.5768" gradientUnits="userSpaceOnUse">
<stop stop-color="#1093ED"/>
<stop offset="0.328125" stop-color="#ED57BB"/>
</linearGradient>
</defs>
</svg>
