<svg width="173" height="34" viewBox="0 0 173 34" fill="none" xmlns="http://www.w3.org/2000/svg">
<path d="M4.20647 22.8282V11.6162V11.2631C3.88514 11.4691 4.18894 11.2631 7.97477 8.79113C3.34766 6.17793 0.730294 9.87996 0 12.0576V23.7994C0.350539 25.7769 1.37294 26.7421 1.84033 26.9776C2.47129 27.1894 2.2785 27.8604 2.01561 28.3901C1.54822 28.5078 0.701085 28.9904 1.05162 29.9792C2.62905 30.5972 4.20647 29.7144 6.13444 28.7432C8.85111 29.0081 15.5114 23.4462 18.7538 21.3274C14.5474 18.6789 10.8667 21.504 7.97477 23.4462C5.66121 25 4.49859 23.6816 4.20647 22.8282Z" fill="#C1519C"/>
<path d="M13.3577 4.88344L3.89233 11.3873C5.52003 12.9553 8.69874 12.5752 10.0846 12.1891C10.7039 11.8624 12.5439 10.7993 14.95 9.15993C17.3562 7.52061 18.4295 9.24903 18.6654 10.3182V21.4549C17.8987 21.9894 16.0823 23.2545 14.95 24.0386C20.1869 26.6045 22.4987 22.6725 23 20.3857V9.78359C22.9116 8.89265 22.6462 8.1799 21.85 6.57622C19.3023 2.9412 15.1269 3.93311 13.3577 4.88344Z" fill="#1093ED"/>
<path d="M30.567 8.585C30.9343 8.585 31.263 8.68167 31.553 8.875C31.8623 9.06833 32.046 9.40667 32.104 9.89C32.336 11.4173 32.481 12.9447 32.539 14.472C32.6163 15.98 32.655 17.691 32.655 19.605C32.655 20.417 32.5873 21.896 32.452 24.042C33.3027 24.1193 33.96 24.158 34.424 24.158C34.7527 24.158 35.497 24.1097 36.657 24.013C37.3337 23.9163 37.9233 23.868 38.426 23.868C38.89 23.868 39.3153 23.9163 39.702 24.013C40.0887 24.0903 40.485 24.2257 40.891 24.419C41.297 24.651 41.5 25.0087 41.5 25.492C41.5 25.8787 41.3743 26.2267 41.123 26.536C40.891 26.8453 40.6107 27 40.282 27C40.05 27 39.6827 26.9613 39.18 26.884C38.2713 26.7487 37.4013 26.681 36.57 26.681C36.2993 26.681 35.99 26.7003 35.642 26.739C35.3133 26.7583 35.0717 26.768 34.917 26.768C34.453 26.826 33.989 26.855 33.525 26.855C32.5777 26.855 31.727 26.8067 30.973 26.71C30.5863 26.6713 30.1997 26.5263 29.813 26.275C29.4263 26.0043 29.233 25.6177 29.233 25.115C29.233 24.825 29.2717 24.0807 29.349 22.882C29.4843 20.8907 29.552 19.373 29.552 18.329C29.552 17.517 29.5133 16.6663 29.436 15.777C29.3587 14.8877 29.3103 14.327 29.291 14.095C29.117 12.4517 29.03 11.0983 29.03 10.035C29.03 9.53233 29.146 9.165 29.378 8.933C29.6293 8.701 30.0257 8.585 30.567 8.585ZM39.6116 20.852C39.6116 20.1173 39.7469 19.3827 40.0176 18.648C40.2883 17.894 40.6459 17.2077 41.0906 16.589C41.5353 15.9703 42.2409 15.4677 43.2076 15.081C44.1743 14.675 45.0346 14.472 45.7886 14.472C46.5619 14.472 47.3449 14.5783 48.1376 14.791C48.9496 15.0037 49.5103 15.3323 49.8196 15.777C50.5349 16.7823 50.8926 17.7683 50.8926 18.735C50.8926 19.257 50.7766 19.7017 50.5446 20.069C50.3319 20.4363 50.0226 20.8327 49.6166 21.258C49.2879 21.606 48.7659 21.838 48.0506 21.954C47.3546 22.07 46.6586 22.128 45.9626 22.128C45.5179 22.128 44.9766 22.0893 44.3386 22.012C43.7006 21.9153 43.0819 21.7993 42.4826 21.664C42.5213 22.0507 42.6179 22.4277 42.7726 22.795C42.9273 23.1623 43.1109 23.4427 43.3236 23.636C43.7103 24.0033 44.1066 24.2353 44.5126 24.332C44.9379 24.4287 45.4793 24.477 46.1366 24.477C46.8326 24.477 47.4803 24.361 48.0796 24.129C48.5629 23.955 48.9593 23.868 49.2686 23.868C49.6359 23.868 49.9163 23.984 50.1096 24.216C50.3029 24.4287 50.3996 24.709 50.3996 25.057C50.3996 25.5403 50.1193 25.9367 49.5586 26.246C48.9979 26.5553 48.3503 26.7873 47.6156 26.942C46.9003 27.0773 46.3203 27.145 45.8756 27.145C44.9669 27.145 44.0873 26.9807 43.2366 26.652C42.3859 26.3233 41.6803 25.8593 41.1196 25.26C40.6556 24.7187 40.2883 24.071 40.0176 23.317C39.7469 22.5437 39.6116 21.722 39.6116 20.852ZM45.9336 16.937C45.5083 16.937 45.0829 17.024 44.6576 17.198C44.2323 17.3527 43.8843 17.575 43.6136 17.865C43.2656 18.2323 43.0239 18.532 42.8886 18.764C42.7726 18.9767 42.6953 19.2763 42.6566 19.663C43.1399 19.8177 44.1453 19.895 45.6726 19.895C46.5039 19.895 47.1419 19.7693 47.5866 19.518C48.0506 19.2667 48.2826 18.938 48.2826 18.532C48.2826 18.126 48.0313 17.7587 47.5286 17.43C47.0259 17.1013 46.4943 16.937 45.9336 16.937ZM50.3289 16.966C50.0582 16.9273 49.8359 16.8113 49.6619 16.618C49.5072 16.4247 49.4299 16.1927 49.4299 15.922C49.4299 15.7867 49.4589 15.6417 49.5169 15.487C49.5942 15.3323 49.7006 15.197 49.8359 15.081C50.0872 14.8297 50.7639 14.704 51.8659 14.704C52.0206 13.95 52.0979 13.1863 52.0979 12.413C52.0979 12.123 52.0882 11.8717 52.0689 11.659C52.0496 11.4463 52.0399 11.282 52.0399 11.166C52.0399 10.7407 52.1946 10.4217 52.5039 10.209C52.8326 9.99633 53.1999 9.89 53.6059 9.89C54.1086 9.89 54.4469 10.0157 54.6209 10.267C54.8142 10.5183 54.9109 10.9823 54.9109 11.659C54.9109 12.6643 54.8239 13.6503 54.6499 14.617C54.9592 14.617 55.3846 14.5977 55.9259 14.559C56.6606 14.5203 57.1922 14.501 57.5209 14.501C57.8496 14.501 58.1299 14.588 58.3619 14.762C58.6132 14.9167 58.7389 15.139 58.7389 15.429C58.7389 16.183 58.4006 16.6277 57.7239 16.763C57.0086 16.937 55.8969 17.0433 54.3889 17.082C54.3309 17.836 54.3019 18.6577 54.3019 19.547C54.3019 20.939 54.3889 22.0797 54.5629 22.969C54.6789 23.5877 54.8722 24.042 55.1429 24.332C55.4329 24.6027 55.8582 24.738 56.4189 24.738C56.7476 24.738 57.0859 24.651 57.4339 24.477C57.6659 24.3417 57.8786 24.274 58.0719 24.274C58.3426 24.274 58.5359 24.361 58.6519 24.535C58.7872 24.709 58.8549 24.941 58.8549 25.231C58.8549 25.7723 58.5649 26.2267 57.9849 26.594C57.4049 26.942 56.6606 27.116 55.7519 27.116C55.1912 27.116 54.6209 26.9807 54.0409 26.71C53.4802 26.4393 53.0066 26.101 52.6199 25.695C52.5619 25.637 52.4556 25.4147 52.3009 25.028C52.1462 24.6413 52.0109 24.2257 51.8949 23.781C51.7016 22.8723 51.6049 21.5963 51.6049 19.953C51.6049 19.2377 51.6436 18.2807 51.7209 17.082L50.3289 16.966ZM58.7672 11.427C58.5546 11.427 58.3999 11.3883 58.3032 11.311C58.0519 11.1563 57.8392 10.9727 57.6652 10.76C57.5106 10.5473 57.4332 10.238 57.4332 9.832C57.4526 9.542 57.5202 9.29067 57.6362 9.078C57.7522 8.846 57.9166 8.68167 58.1292 8.585C58.5352 8.37233 59.0572 8.266 59.6952 8.266C60.1592 8.266 60.5169 8.44 60.7682 8.788C61.0389 9.11667 61.1742 9.52267 61.1742 10.006C61.1742 10.586 61.0002 11.2627 60.6522 12.036C60.3236 12.79 59.9949 13.3797 59.6662 13.805C59.4149 14.095 59.1346 14.3463 58.8252 14.559C58.5159 14.7717 58.2452 14.878 58.0132 14.878C57.5492 14.878 57.2592 14.8103 57.1432 14.675C57.0466 14.5203 56.9982 14.2593 56.9982 13.892C56.9982 13.7373 57.2012 13.4957 57.6072 13.167C57.9359 12.877 58.1389 12.674 58.2162 12.558C58.5062 12.1713 58.7189 11.7943 58.8542 11.427H58.7672ZM68.2897 20.736C68.4443 20.8327 68.744 21.0163 69.1887 21.287C69.6527 21.5383 69.962 21.838 70.1167 22.186C70.2713 22.534 70.3487 23.0173 70.3487 23.636C70.3487 24.332 70.1457 24.9507 69.7397 25.492C69.3337 26.014 68.8117 26.42 68.1737 26.71C67.729 26.9033 67.2457 27.0193 66.7237 27.058C66.221 27.0967 65.612 27.116 64.8967 27.116C64.51 27.116 64.0073 27.058 63.3887 26.942C62.7893 26.826 62.3737 26.7197 62.1417 26.623C61.523 26.275 61.001 25.869 60.5757 25.405C60.1503 24.941 59.9377 24.4673 59.9377 23.984C59.9377 23.5973 60.0633 23.288 60.3147 23.056C60.566 22.824 60.8947 22.708 61.3007 22.708C61.5133 22.708 61.7163 22.766 61.9097 22.882C62.1223 22.9787 62.2673 23.0947 62.3447 23.23C62.5573 23.7327 62.915 24.1097 63.4177 24.361C63.9203 24.6123 64.4327 24.738 64.9547 24.738C66.7913 24.738 67.7097 24.4093 67.7097 23.752C67.7097 23.578 67.6613 23.4427 67.5647 23.346C67.4873 23.23 67.3713 23.114 67.2167 22.998C66.9653 22.824 66.6077 22.6403 66.1437 22.447C65.699 22.2537 65.3027 22.1087 64.9547 22.012C64.162 21.838 63.3887 21.577 62.6347 21.229C61.9387 20.881 61.3683 20.4267 60.9237 19.866C60.479 19.286 60.2567 18.5803 60.2567 17.749C60.2567 17.2463 60.4403 16.7533 60.8077 16.27C61.1943 15.7673 61.639 15.3903 62.1417 15.139C62.4897 15.0037 63.06 14.8587 63.8527 14.704C64.6453 14.5493 65.1867 14.472 65.4767 14.472C65.9213 14.472 66.4047 14.5203 66.9267 14.617C67.4487 14.6943 67.845 14.8297 68.1157 15.023C68.6377 15.3323 69.063 15.661 69.3917 16.009C69.7203 16.3377 69.8847 16.7147 69.8847 17.14C69.8847 17.3527 69.8363 17.5847 69.7397 17.836C69.643 18.068 69.527 18.213 69.3917 18.271C69.1017 18.4063 68.7633 18.474 68.3767 18.474C68.2027 18.474 68.0577 18.4257 67.9417 18.329C67.845 18.2323 67.7097 18.0777 67.5357 17.865C67.323 17.5363 67.12 17.343 66.9267 17.285C66.6947 17.227 66.3563 17.1593 65.9117 17.082C65.467 16.9853 65.1673 16.937 65.0127 16.937C64.5293 16.937 64.0653 17.0337 63.6207 17.227C63.1953 17.4203 62.9827 17.6813 62.9827 18.01C62.9827 18.3967 63.3017 18.7253 63.9397 18.996C64.3457 19.1893 64.7903 19.3537 65.2737 19.489C65.7763 19.6243 66.0857 19.7113 66.2017 19.75C66.4723 19.808 66.8203 19.9433 67.2457 20.156C67.6903 20.3687 68.0383 20.562 68.2897 20.736ZM88.5584 21.142C88.5584 22.2247 88.1427 23.259 87.3114 24.245C86.4994 25.2117 85.4651 25.9753 84.2084 26.536C83.6671 26.71 82.9807 26.855 82.1494 26.971C81.3181 27.0677 80.4771 27.1257 79.6264 27.145C77.9637 27.145 76.4171 26.913 74.9864 26.449C74.7351 26.391 74.4451 26.2267 74.1164 25.956C73.7877 25.6853 73.6331 25.3277 73.6524 24.883V23.897C73.6524 22.8143 73.6234 21.7703 73.5654 20.765C73.5267 19.4503 73.5074 18.445 73.5074 17.749L73.4784 14.472C73.4784 13.312 73.5171 12.1423 73.5944 10.963C73.6137 10.3637 73.8361 9.861 74.2614 9.455C74.7061 9.02967 75.2571 8.76867 75.9144 8.672C76.1657 8.65267 76.6201 8.643 77.2774 8.643L80.0614 8.672C81.3954 8.672 82.5844 8.846 83.6284 9.194C84.6724 9.542 85.5714 10.1027 86.3254 10.876C86.5767 11.166 86.7797 11.5527 86.9344 12.036C87.0891 12.5 87.1664 12.9543 87.1664 13.399C87.1084 14.965 86.2094 16.241 84.4694 17.227C85.8614 17.401 86.8861 17.836 87.5434 18.532C88.2201 19.228 88.5584 20.098 88.5584 21.142ZM77.5964 16.531C77.7897 16.5117 78.0991 16.502 78.5244 16.502H79.8294C80.4094 16.502 80.8154 16.4827 81.0474 16.444C83.0194 15.9993 84.0054 15.2163 84.0054 14.095C84.0054 13.805 83.9571 13.4957 83.8604 13.167C83.7831 12.8383 83.6767 12.6063 83.5414 12.471C83.0387 11.9877 82.5651 11.6783 82.1204 11.543C81.6757 11.3883 81.0184 11.311 80.1484 11.311C78.4664 11.311 77.2581 11.398 76.5234 11.572L76.5524 16.56L77.5964 16.531ZM78.9304 24.709C80.9411 24.709 82.5167 24.4577 83.6574 23.955C84.8174 23.4523 85.3974 22.4663 85.3974 20.997C85.3974 20.417 84.9721 19.9433 84.1214 19.576C83.2707 19.1893 82.3427 18.996 81.3374 18.996C80.1001 18.996 79.2301 19.025 78.7274 19.083C78.3021 19.1217 78.0121 19.141 77.8574 19.141C77.5674 19.141 77.3644 19.1313 77.2484 19.112C77.1517 19.112 77.0357 19.112 76.9004 19.112C76.7844 19.0927 76.6587 19.0927 76.5234 19.112L76.5524 20.069C76.5717 20.301 76.6007 20.939 76.6394 21.983C76.6974 23.0077 76.7071 23.7327 76.6684 24.158C77.1131 24.3513 77.4997 24.4963 77.8284 24.593C78.1571 24.6703 78.5244 24.709 78.9304 24.709ZM87.6256 20.359C87.6256 19.1797 87.8866 18.2033 88.4086 17.43C88.9306 16.6373 89.6556 15.893 90.5836 15.197C90.8543 15.0037 91.3086 14.8393 91.9466 14.704C92.5846 14.5493 93.1453 14.472 93.6286 14.472C94.2086 14.472 94.8176 14.5977 95.4556 14.849C96.113 15.081 96.6446 15.3517 97.0506 15.661C97.766 16.183 98.259 16.792 98.5296 17.488C98.8003 18.1647 98.9356 18.9767 98.9356 19.924C98.9356 20.33 98.7036 20.7263 98.2396 21.113C97.795 21.4803 97.3116 21.664 96.7896 21.664L95.6876 21.635C95.127 21.635 94.3246 21.6543 93.2806 21.693L92.6716 21.722C92.2463 21.7607 91.9273 21.78 91.7146 21.78C91.4053 21.78 90.98 21.7413 90.4386 21.664C90.516 22.5727 90.8543 23.288 91.4536 23.81C92.053 24.3127 92.7006 24.564 93.3966 24.564C94.6146 24.564 95.4653 24.3223 95.9486 23.839C96.3546 23.549 96.6253 23.3653 96.7606 23.288C96.896 23.2107 97.1086 23.172 97.3986 23.172C97.708 23.172 97.9786 23.317 98.2106 23.607C98.4426 23.897 98.5586 24.187 98.5586 24.477C98.5586 24.8057 98.3556 25.144 97.9496 25.492C97.563 25.8207 97.0313 26.1687 96.3546 26.536C95.9873 26.6907 95.4846 26.826 94.8466 26.942C94.2086 27.058 93.677 27.116 93.2516 27.116C92.575 27.116 91.821 26.9227 90.9896 26.536C90.1583 26.13 89.5396 25.6853 89.1336 25.202C88.7276 24.7187 88.37 24.0323 88.0606 23.143C87.7706 22.2537 87.6256 21.3257 87.6256 20.359ZM93.3966 19.576C94.7693 19.576 95.7746 19.5277 96.4126 19.431C96.374 18.8703 96.2 18.416 95.8906 18.068C95.5813 17.7007 95.156 17.3913 94.6146 17.14C94.4406 17.0627 94.286 17.0047 94.1506 16.966C94.0153 16.9273 93.8606 16.908 93.6866 16.908C92.7973 16.908 92.0433 17.1497 91.4246 17.633C90.8253 18.1163 90.4676 18.735 90.3516 19.489C91.3183 19.547 92.3333 19.576 93.3966 19.576ZM105.351 25.956C105.293 26.246 105.119 26.4973 104.829 26.71C104.558 26.9033 104.172 27 103.669 27C103.244 27 102.905 26.884 102.654 26.652C102.422 26.42 102.296 26.1783 102.277 25.927C102.393 25.115 102.451 23.897 102.451 22.273C102.451 21.3063 102.393 19.8177 102.277 17.807C102.142 15.9123 102.074 14.2303 102.074 12.761C102.074 11.9683 102.113 11.1563 102.19 10.325C102.19 10.0543 102.345 9.76433 102.654 9.455C102.983 9.14567 103.427 8.95233 103.988 8.875C105.129 8.759 106.646 8.701 108.541 8.701L111.673 8.73C112.35 8.73 112.988 8.86533 113.587 9.136C114.206 9.38733 114.515 9.82233 114.515 10.441C114.515 11.311 114.061 11.746 113.152 11.746C112.881 11.746 112.601 11.7267 112.311 11.688C112.021 11.6493 111.818 11.6203 111.702 11.601C111.045 11.485 110.503 11.427 110.078 11.427H108.657C106.936 11.427 105.718 11.5237 105.003 11.717C105.003 12.355 105.022 13.3893 105.061 14.82L105.09 16.676C106.115 16.676 107.487 16.6083 109.208 16.473C110.252 16.3957 110.938 16.357 111.267 16.357C111.731 16.357 112.118 16.4537 112.427 16.647C112.736 16.8403 112.891 17.1497 112.891 17.575C112.891 18.561 112.214 19.054 110.861 19.054C110.184 19.054 109.672 19.0637 109.324 19.083L107.613 19.112C106.724 19.112 105.97 19.141 105.351 19.199C105.351 19.9143 105.38 20.6683 105.438 21.461C105.438 21.7123 105.448 22.099 105.467 22.621C105.506 23.143 105.525 23.6167 105.525 24.042C105.525 24.4093 105.515 24.7477 105.496 25.057C105.477 25.3663 105.428 25.666 105.351 25.956ZM116.946 25.84C116.907 26.1687 116.772 26.4587 116.54 26.71C116.308 26.9613 116.008 27.087 115.641 27.087C115.061 27.087 114.635 26.9807 114.365 26.768C114.094 26.536 113.959 26.1203 113.959 25.521C113.959 24.709 114.007 23.8197 114.104 22.853C114.181 21.7317 114.22 20.8713 114.22 20.272C114.22 19.9627 114.2 19.576 114.162 19.112C114.123 18.6867 114.104 18.3677 114.104 18.155C114.046 17.8263 113.91 17.5653 113.698 17.372C113.504 17.1787 113.195 17.0143 112.77 16.879C112.596 16.8017 112.451 16.676 112.335 16.502C112.219 16.3087 112.161 16.1347 112.161 15.98C112.161 15.5353 112.335 15.197 112.683 14.965C113.031 14.733 113.456 14.617 113.959 14.617C114.519 14.617 115.003 14.8103 115.409 15.197C115.815 15.5837 116.124 16.067 116.337 16.647C116.781 16.009 117.323 15.4967 117.961 15.11C118.618 14.7233 119.256 14.53 119.875 14.53C120.667 14.53 121.334 14.6653 121.876 14.936C122.436 15.1873 122.717 15.632 122.717 16.27C122.717 16.6373 122.552 17.024 122.224 17.43C121.914 17.8167 121.595 18.01 121.267 18.01C121.015 18.01 120.716 17.894 120.368 17.662C120.232 17.5653 120.078 17.488 119.904 17.43C119.749 17.3527 119.585 17.314 119.411 17.314C119.101 17.314 118.811 17.3623 118.541 17.459C118.27 17.5557 118.086 17.6717 117.99 17.807C117.68 18.2903 117.448 18.7253 117.294 19.112C117.158 19.4987 117.091 19.9143 117.091 20.359C117.091 20.6877 117.081 20.9487 117.062 21.142L117.033 22.795L117.062 23.897C117.062 24.709 117.023 25.3567 116.946 25.84ZM122.527 8.382C123.204 8.44 123.784 8.62367 124.267 8.933C124.77 9.223 125.021 9.66767 125.021 10.267C125.021 10.7117 124.818 11.0693 124.412 11.34C124.006 11.5913 123.503 11.717 122.904 11.717C122.343 11.717 121.957 11.572 121.744 11.282C121.531 10.992 121.425 10.6923 121.425 10.383C121.425 9.82233 121.493 9.34867 121.628 8.962C121.763 8.556 122.063 8.36267 122.527 8.382ZM121.947 20.359V19.518C121.947 18.5513 121.899 17.6717 121.802 16.879C121.725 16.067 121.676 15.5643 121.657 15.371C121.676 15.1583 121.821 14.9553 122.092 14.762C122.363 14.5687 122.604 14.472 122.817 14.472C123.184 14.472 123.552 14.5493 123.919 14.704C124.306 14.8393 124.547 15.0133 124.644 15.226C124.741 15.9413 124.789 16.4923 124.789 16.879C124.789 17.7297 124.828 19.1217 124.905 21.055L124.934 22.186L124.992 23.288C125.011 23.5973 125.031 23.9647 125.05 24.39C125.069 24.8153 125.079 25.2987 125.079 25.84C125.079 26.2073 124.895 26.5167 124.528 26.768C124.18 27.0193 123.813 27.145 123.426 27.145C122.865 27.145 122.469 27.0193 122.237 26.768C122.024 26.5167 121.918 26.1203 121.918 25.579L121.947 20.359ZM124.902 20.852C124.902 20.1173 125.038 19.3827 125.308 18.648C125.579 17.894 125.937 17.2077 126.381 16.589C126.826 15.9703 127.532 15.4677 128.498 15.081C129.465 14.675 130.325 14.472 131.079 14.472C131.853 14.472 132.636 14.5783 133.428 14.791C134.24 15.0037 134.801 15.3323 135.11 15.777C135.826 16.7823 136.183 17.7683 136.183 18.735C136.183 19.257 136.067 19.7017 135.835 20.069C135.623 20.4363 135.313 20.8327 134.907 21.258C134.579 21.606 134.057 21.838 133.341 21.954C132.645 22.07 131.949 22.128 131.253 22.128C130.809 22.128 130.267 22.0893 129.629 22.012C128.991 21.9153 128.373 21.7993 127.773 21.664C127.812 22.0507 127.909 22.4277 128.063 22.795C128.218 23.1623 128.402 23.4427 128.614 23.636C129.001 24.0033 129.397 24.2353 129.803 24.332C130.229 24.4287 130.77 24.477 131.427 24.477C132.123 24.477 132.771 24.361 133.37 24.129C133.854 23.955 134.25 23.868 134.559 23.868C134.927 23.868 135.207 23.984 135.4 24.216C135.594 24.4287 135.69 24.709 135.69 25.057C135.69 25.5403 135.41 25.9367 134.849 26.246C134.289 26.5553 133.641 26.7873 132.906 26.942C132.191 27.0773 131.611 27.145 131.166 27.145C130.258 27.145 129.378 26.9807 128.527 26.652C127.677 26.3233 126.971 25.8593 126.41 25.26C125.946 24.7187 125.579 24.071 125.308 23.317C125.038 22.5437 124.902 21.722 124.902 20.852ZM131.224 16.937C130.799 16.937 130.374 17.024 129.948 17.198C129.523 17.3527 129.175 17.575 128.904 17.865C128.556 18.2323 128.315 18.532 128.179 18.764C128.063 18.9767 127.986 19.2763 127.947 19.663C128.431 19.8177 129.436 19.895 130.963 19.895C131.795 19.895 132.433 19.7693 132.877 19.518C133.341 19.2667 133.573 18.938 133.573 18.532C133.573 18.126 133.322 17.7587 132.819 17.43C132.317 17.1013 131.785 16.937 131.224 16.937ZM148.843 24.767C148.94 24.8057 149.095 24.854 149.307 24.912C149.52 24.97 149.675 25.028 149.771 25.086C149.868 25.144 149.916 25.231 149.916 25.347C149.936 25.811 149.762 26.1977 149.394 26.507C149.046 26.797 148.631 26.942 148.147 26.942C147.393 26.942 146.804 26.739 146.378 26.333C145.953 25.927 145.644 25.3083 145.45 24.477C145.373 24.1483 145.334 23.694 145.334 23.114C145.334 22.7853 145.354 22.2537 145.392 21.519C145.431 20.7457 145.45 20.127 145.45 19.663C145.45 18.9863 145.257 18.3967 144.87 17.894C144.503 17.372 143.981 17.111 143.304 17.111C142.898 17.111 142.473 17.2367 142.028 17.488C141.584 17.72 141.274 18.01 141.1 18.358C140.81 18.9187 140.607 19.5277 140.491 20.185C140.279 21.345 140.172 22.5533 140.172 23.81C140.172 24.4093 140.182 24.8733 140.201 25.202C140.201 25.2793 140.201 25.434 140.201 25.666C140.221 25.8787 140.201 26.0817 140.143 26.275C140.105 26.449 140.027 26.6133 139.911 26.768C139.815 26.8647 139.66 26.942 139.447 27C139.254 27.0773 139.07 27.116 138.896 27.116C138.626 27.116 138.287 27 137.881 26.768C137.475 26.536 137.243 26.275 137.185 25.985L137.156 25.492C137.156 25.318 137.176 25.115 137.214 24.883C137.446 23.5297 137.562 22.3503 137.562 21.345C137.562 20.9003 137.553 20.5523 137.533 20.301L137.504 18.938C137.504 18.474 137.388 18.0293 137.156 17.604C136.924 17.1593 136.654 16.937 136.344 16.937C136.248 16.937 136.112 16.9757 135.938 17.053C135.764 17.111 135.619 17.14 135.503 17.14C135.31 17.14 135.097 17.0433 134.865 16.85C134.653 16.6567 134.546 16.4537 134.546 16.241C134.546 15.835 134.682 15.5063 134.952 15.255C135.242 15.023 135.523 14.8393 135.793 14.704C136.083 14.5687 136.412 14.501 136.779 14.501C137.089 14.501 137.34 14.53 137.533 14.588C137.727 14.646 137.988 14.7717 138.316 14.965C138.49 15.0617 138.693 15.2743 138.925 15.603C139.157 15.9317 139.351 16.3957 139.505 16.995C140.008 16.067 140.627 15.4193 141.361 15.052C142.115 14.6653 143.072 14.472 144.232 14.472C144.677 14.472 145.151 14.617 145.653 14.907C146.175 15.197 146.62 15.5353 146.987 15.922C147.335 16.3473 147.625 16.879 147.857 17.517C148.089 18.1357 148.205 18.6963 148.205 19.199C148.205 19.489 148.186 19.9627 148.147 20.62C148.089 21.142 148.06 21.693 148.06 22.273C148.06 23.6263 148.321 24.4577 148.843 24.767ZM160.688 26.855C160.282 26.855 159.895 26.739 159.528 26.507C159.18 26.2557 158.871 25.9947 158.6 25.724C158.329 25.434 158.146 25.2407 158.049 25.144C157.643 25.724 157.053 26.1977 156.28 26.565C155.507 26.9323 154.762 27.116 154.047 27.116C152.945 27.116 151.969 26.884 151.118 26.42C150.267 25.956 149.61 25.3277 149.146 24.535C148.682 23.723 148.45 22.824 148.45 21.838C148.45 20.91 148.556 20.0207 148.769 19.17C149.001 18.3 149.31 17.575 149.697 16.995C150.219 16.2603 150.915 15.6803 151.785 15.255C152.674 14.8297 153.554 14.617 154.424 14.617C154.946 14.617 155.439 14.7137 155.903 14.907C156.367 15.1003 156.773 15.342 157.121 15.632C157.121 14.356 157.111 13.5537 157.092 13.225V12.587C157.092 10.7697 157.208 9.44533 157.44 8.614C157.653 7.802 158.175 7.396 159.006 7.396C159.451 7.396 159.779 7.49267 159.992 7.686C160.205 7.87933 160.311 8.24667 160.311 8.788C160.311 8.98133 160.263 9.513 160.166 10.383C159.953 12.5483 159.847 14.7137 159.847 16.879C159.847 18.6963 159.876 20.0497 159.934 20.939C160.011 21.809 160.156 22.505 160.369 23.027C160.601 23.549 160.959 24.013 161.442 24.419C161.732 24.651 161.935 24.8443 162.051 24.999C162.186 25.1537 162.254 25.3567 162.254 25.608C162.254 25.9173 162.099 26.2073 161.79 26.478C161.481 26.7293 161.113 26.855 160.688 26.855ZM153.96 24.767C154.985 24.767 155.739 24.448 156.222 23.81C156.725 23.1527 156.976 22.3213 156.976 21.316L156.947 19.692C156.928 19.3827 156.918 18.967 156.918 18.445C156.203 17.5943 155.429 17.169 154.598 17.169C154.037 17.169 153.506 17.314 153.003 17.604C152.52 17.894 152.123 18.3193 151.814 18.88C151.485 19.518 151.321 20.4847 151.321 21.78C151.321 22.6693 151.582 23.3943 152.104 23.955C152.626 24.4963 153.245 24.767 153.96 24.767ZM169.102 20.359C169.876 20.8037 170.417 21.2483 170.726 21.693C171.036 22.1183 171.19 22.679 171.19 23.375C171.19 24.071 170.987 24.6897 170.581 25.231C170.175 25.753 169.653 26.159 169.015 26.449C168.551 26.6617 167.971 26.826 167.275 26.942C166.599 27.058 166.067 27.116 165.68 27.116C165.004 27.116 164.269 26.9903 163.476 26.739C162.684 26.4877 162.007 26.13 161.446 25.666C160.905 25.202 160.634 24.6607 160.634 24.042C160.634 23.6553 160.76 23.3557 161.011 23.143C161.263 22.911 161.591 22.795 161.997 22.795C162.326 22.795 162.674 23.027 163.041 23.491C163.409 23.897 163.834 24.2063 164.317 24.419C164.82 24.6317 165.313 24.738 165.796 24.738C167.633 24.738 168.551 24.3223 168.551 23.491C168.551 23.317 168.493 23.1527 168.377 22.998C168.261 22.824 168.155 22.708 168.058 22.65C167.884 22.5147 167.643 22.3987 167.333 22.302C167.024 22.2053 166.715 22.128 166.405 22.07C166.096 21.9927 165.864 21.9347 165.709 21.896C165.555 21.8573 165.226 21.7897 164.723 21.693C164.24 21.5963 163.776 21.432 163.331 21.2C162.597 20.852 161.997 20.4267 161.533 19.924C161.089 19.4213 160.866 18.7737 160.866 17.981C160.866 17.5363 160.973 17.0917 161.185 16.647C161.417 16.183 161.727 15.835 162.113 15.603C162.693 15.2357 163.331 14.9553 164.027 14.762C164.723 14.5687 165.371 14.472 165.97 14.472C166.454 14.472 166.995 14.5203 167.594 14.617C168.213 14.7137 168.658 14.849 168.928 15.023C169.431 15.2937 169.798 15.574 170.03 15.864C170.262 16.154 170.378 16.5213 170.378 16.966C170.378 17.1787 170.33 17.3913 170.233 17.604C170.137 17.7973 170.021 17.9327 169.885 18.01C169.576 18.126 169.305 18.184 169.073 18.184C168.899 18.184 168.754 18.155 168.638 18.097C168.522 18.0197 168.416 17.9423 168.319 17.865C168.242 17.7877 168.194 17.7393 168.174 17.72C167.923 17.4493 167.643 17.2367 167.333 17.082C167.024 16.9273 166.57 16.85 165.97 16.85C165.584 16.85 165.207 16.908 164.839 17.024C164.491 17.1207 164.221 17.2463 164.027 17.401C163.873 17.517 163.766 17.6233 163.708 17.72C163.65 17.7973 163.621 17.9037 163.621 18.039C163.621 18.5803 164.163 18.9767 165.245 19.228C166.347 19.4793 166.927 19.6147 166.985 19.634C167.101 19.6727 167.42 19.7693 167.942 19.924C168.484 20.0787 168.87 20.2237 169.102 20.359Z" fill="url(#paint0_linear_101_34)"/>
<defs>
<linearGradient id="paint0_linear_101_34" x1="137.176" y1="-2.21052e-05" x2="-81.2238" y2="60.5165" gradientUnits="userSpaceOnUse">
<stop stop-color="#1093ED"/>
<stop offset="0.328125" stop-color="#ED57BB"/>
</linearGradient>
</defs>
</svg>
